<svg width="199" height="269" viewBox="0 0 199 269" fill="none" xmlns="http://www.w3.org/2000/svg">
<path d="M30.9777 31.0921C39.3777 36.6921 136.144 93.4254 183.478 121.092C194.811 127.759 210.678 145.692 183.478 164.092C156.278 182.492 70.8111 237.759 31.4777 263.092C19.4777 269.925 -1.12225 275.892 12.4777 245.092C27.6778 215.092 38.9778 196.092 41.9778 190.092L55.1873 169.544C55.3804 169.244 55.5998 168.965 55.8629 168.724C59.33 165.544 70.024 158.821 88.4778 154.592C94.6506 153.177 100.506 151.725 105.799 150.344L129.478 143.592C131.478 142.592 134.278 139.092 129.478 137.092L105.478 130.092C105.478 130.092 100.816 129.351 95 128.348C87.3031 127.019 77.5853 125.231 73.9778 124.092C67.6445 122.092 50.4778 107.092 41.4778 89.592C32.5878 72.3059 9.08376 40.7822 13.3082 31.4289C13.4132 31.1965 13.5559 30.9906 13.7133 30.7899C14.4906 29.7983 15.5623 28.5413 17.5 28C20.788 27.0814 25.8904 27.7005 30.9777 31.0921Z" fill="url(#paint0_linear_9_36)"/>
<path d="M128.882 143.362C130.815 142.136 132.96 138.96 128.478 137.092L104.478 130.092C104.478 130.092 101.884 129.68 98.1522 129.054C95.7523 128.651 94 126.57 94 124.136V109.213C94 105.246 98.375 102.876 101.661 105.098C111.043 111.441 126.271 122.095 131 127.5C138 135.5 136.5 145.5 131 153.5C127.778 158.186 112.684 168.054 101.158 174.618C97.9168 176.464 94 174.086 94 170.356V157.197C94 154.964 95.4811 153.001 97.6289 152.389L128.03 143.72C128.328 143.635 128.621 143.528 128.882 143.362Z" fill="url(#paint1_linear_9_36)"/>
<path d="M128.882 143.362C130.815 142.136 132.96 138.96 128.478 137.092L104.478 130.092C104.478 130.092 101.884 129.68 98.1522 129.054C95.7523 128.651 94 126.57 94 124.136V109.213C94 105.246 98.375 102.876 101.661 105.098C111.043 111.441 126.271 122.095 131 127.5C138 135.5 136.5 145.5 131 153.5C127.778 158.186 112.684 168.054 101.158 174.618C97.9168 176.464 94 174.086 94 170.356V157.197C94 154.964 95.4811 153.001 97.6289 152.389L128.03 143.72C128.328 143.635 128.621 143.528 128.882 143.362Z" fill="url(#paint2_linear_9_36)"/>
<path d="M135 61V45C135 43.8954 135.895 43 137 43H153C154.105 43 155 43.8954 155 45V61C155 62.1046 154.105 63 153 63H137C135.895 63 135 62.1046 135 61Z" fill="#006FFF" stroke="#006FFF" stroke-opacity="0.6" stroke-width="2"/>
<path d="M68 15V3C68 1.89543 68.8954 1 70 1H82.5C83.6046 1 84.5 1.89543 84.5 3V15C84.5 16.1046 83.6046 17 82.5 17H70C68.8954 17 68 16.1046 68 15Z" fill="#F07033" stroke="#F07033" stroke-opacity="0.6" stroke-width="2"/>
<path d="M110 26V18C110 16.8954 110.895 16 112 16H119.5C120.605 16 121.5 16.8954 121.5 18V26C121.5 27.1046 120.605 28 119.5 28H112C110.895 28 110 27.1046 110 26Z" fill="#0885FD" stroke="#0885FD" stroke-opacity="0.6" stroke-width="2"/>
<path d="M26 132V124C26 122.895 26.8954 122 28 122H36C37.1046 122 38 122.895 38 124V132C38 133.105 37.1046 134 36 134H28C26.8954 134 26 133.105 26 132Z" fill="#FF0E8E" stroke="#FF0E8E" stroke-opacity="0.6" stroke-width="2"/>
<path d="M2 169V155C2 153.895 2.89543 153 4 153H18C19.1046 153 20 153.895 20 155V169C20 170.105 19.1046 171 18 171H4C2.89543 171 2 170.105 2 169Z" fill="#FB02A8" stroke="#FB02A8" stroke-opacity="0.6" stroke-width="2"/>
<path d="M100 59V51C100 49.8954 100.895 49 102 49H111C112.105 49 113 49.8954 113 51V59C113 60.1046 112.105 61 111 61H102C100.895 61 100 60.1046 100 59Z" fill="#EC5F58" stroke="#EC5F58" stroke-opacity="0.6" stroke-width="2"/>
<path d="M161 88V79C161 77.8954 161.895 77 163 77H171C172.105 77 173 77.8954 173 79V88C173 89.1046 172.105 90 171 90H163C161.895 90 161 89.1046 161 88Z" fill="#016AF7" stroke="#016AF7" stroke-opacity="0.6" stroke-width="2"/>
<path d="M1 96V85C1 83.8954 1.89543 83 3 83H13C14.1046 83 15 83.8954 15 85V96C15 97.1046 14.1046 98 13 98H3C1.89543 98 1 97.1046 1 96Z" fill="#F84258" stroke="#F84258" stroke-opacity="0.6" stroke-width="2"/>
<defs>
<linearGradient id="paint0_linear_9_36" x1="0.477784" y1="60.092" x2="198.478" y2="140.092" gradientUnits="userSpaceOnUse">
<stop stop-color="#EF7F2D"/>
<stop offset="0.23269" stop-color="#F94459"/>
<stop offset="0.471235" stop-color="#FB02A5"/>
<stop offset="0.667548" stop-color="#C23AC0"/>
<stop offset="1" stop-color="#0171FF"/>
</linearGradient>
<linearGradient id="paint1_linear_9_36" x1="-0.522205" y1="60.092" x2="197.478" y2="140.092" gradientUnits="userSpaceOnUse">
<stop stop-color="#EF7F2D"/>
<stop offset="0.23269" stop-color="#F94459"/>
<stop offset="0.471235" stop-color="#FB02A5"/>
<stop offset="0.667548" stop-color="#C23AC0"/>
<stop offset="1" stop-color="#0171FF"/>
</linearGradient>
<linearGradient id="paint2_linear_9_36" x1="94" y1="141" x2="155" y2="141" gradientUnits="userSpaceOnUse">
<stop offset="0.120192" stop-opacity="0"/>
<stop offset="0.7" stop-opacity="0.5"/>
<stop offset="1"/>
</linearGradient>
</defs>
</svg>
